PathFileType	4	(X/Y/Z)	Kaydara	
DataRate	CameraRate	NumFrames	NumMarkers	Units	OrigDataRate	OrigDataStartFrame	OrigNumFrames	
240.00	240.00	4	72	mm	240.00	315	359	
Frame#	Time	Hips			RightUpLeg			RightLeg			RightFoot			RightFoot_End			LeftUpLeg			LeftLeg			LeftFoot			LeftFoot_End			Spine			Spine1			Spine2			Spine3			Neck			Head			Head_End			RightShoulder			RightArm			RightForeArm			RightHand			RightHandThumb1			RightHandThumb2			RightHandThumb3			RightHandThumb3_End			RightInHandIndex			RightHandIndex1			RightHandIndex2			RightHandIndex3			RightHandIndex3_End			RightInHandMiddle			RightHandMiddle1			RightHandMiddle2			RightHandMiddle3			RightHandMiddle3_End			RightInHandRing			RightHandRing1			RightHandRing2			RightHandRing3			RightHandRing3_End			RightInHandPinky			RightHandPinky1			RightHandPinky2			RightHandPinky3			RightHandPinky3_End			LeftShoulder			LeftArm			LeftForeArm			LeftHand			LeftHandThumb1			LeftHandThumb2			LeftHandThumb3			LeftHandThumb3_End			LeftInHandIndex			LeftHandIndex1			LeftHandIndex2			LeftHandIndex3			LeftHandIndex3_End			LeftInHandMiddle			LeftHandMiddle1			LeftHandMiddle2			LeftHandMiddle3			LeftHandMiddle3_End			LeftInHandRing			LeftHandRing1			LeftHandRing2			LeftHandRing3			LeftHandRing3_End			LeftInHandPinky			LeftHandPinky1			LeftHandPinky2			LeftHandPinky3			LeftHandPinky3_End			
		X1	Y1	Z1	X2	Y2	Z2	X3	Y3	Z3	X4	Y4	Z4	X5	Y5	Z5	X6	Y6	Z6	X7	Y7	Z7	X8	Y8	Z8	X9	Y9	Z9	X10	Y10	Z10	X11	Y11	Z11	X12	Y12	Z12	X13	Y13	Z13	X14	Y14	Z14	X15	Y15	Z15	X16	Y16	Z16	X17	Y17	Z17	X18	Y18	Z18	X19	Y19	Z19	X20	Y20	Z20	X21	Y21	Z21	X22	Y22	Z22	X23	Y23	Z23	X24	Y24	Z24	X25	Y25	Z25	X26	Y26	Z26	X27	Y27	Z27	X28	Y28	Z28	X29	Y29	Z29	X30	Y30	Z30	X31	Y31	Z31	X32	Y32	Z32	X33	Y33	Z33	X34	Y34	Z34	X35	Y35	Z35	X36	Y36	Z36	X37	Y37	Z37	X38	Y38	Z38	X39	Y39	Z39	X40	Y40	Z40	X41	Y41	Z41	X42	Y42	Z42	X43	Y43	Z43	X44	Y44	Z44	X45	Y45	Z45	X46	Y46	Z46	X47	Y47	Z47	X48	Y48	Z48	X49	Y49	Z49	X50	Y50	Z50	X51	Y51	Z51	X52	Y52	Z52	X53	Y53	Z53	X54	Y54	Z54	X55	Y55	Z55	X56	Y56	Z56	X57	Y57	Z57	X58	Y58	Z58	X59	Y59	Z59	X60	Y60	Z60	X61	Y61	Z61	X62	Y62	Z62	X63	Y63	Z63	X64	Y64	Z64	X65	Y65	Z65	X66	Y66	Z66	X67	Y67	Z67	X68	Y68	Z68	X69	Y69	Z69	X70	Y70	Z70	X71	Y71	Z71	X72	Y72	Z72	

315	1.308	3198.941	914.58397	126.699	3241.6569367111265	884.0485847414445	50.31839056715844	3143.5932380137606	490.7077875955735	-55.178608983697906	3143.360143473483	99.74780007433806	-134.00966340375618	2992.3902429151835	22.623066756564032	-45.70248938042325	3169.118790254944	918.6790446960172	215.40923669587593	3078.4226265447614	515.6129379724453	284.01370981135676	2994.540151225774	89.73388972739923	354.4574559748677	2874.319469405757	6.2192774489898905	231.53660213105397	3139.16514997766	1033.8939563918789	75.15348198713534	3079.6278789477255	1089.5338415878593	22.255612970776046	3014.366934664368	1140.6257978650972	-35.79373822652544	2947.584201056426	1179.0398427032585	-95.01505707885252	2875.0915194757335	1220.4300290137314	-156.74425677327972	2807.7847835042826	1258.9743986614594	-210.56810574161554	2674.551136445525	1342.794354086556	-233.90361300057128	2909.9806927711206	1191.216743606758	-158.9234701938097	2913.3098196910832	1104.7064722423765	-235.48122334298938	2885.887683459023	943.9804302960484	-76.77707830171678	2795.628394732365	820.6168154831672	-16.052292491273498	2792.2961216924223	831.9288518192554	-6.069336043262647	2792.744165579339	830.5364826067746	5.810650037806244	2793.0152615946	825.9672185327689	14.030910808307992	2793.2062573237963	819.0786449867148	20.838478508892067	2791.3805896294443	820.2791590755951	-5.374365301621111	2786.7428036944534	805.4757305981409	10.882971870639718	2785.9891119600925	794.0196826018683	22.362563643330972	2787.2715989344783	790.3447510501315	28.37221580466875	2789.5142580826123	789.628318680552	32.58606831409198	2791.5482990457863	810.9491583668355	-6.076369712321605	2787.1147472606403	791.4640720935874	9.400785096818218	2786.3325852254834	777.778743438701	21.782147359876035	2787.899184929812	772.7766852749153	28.962911155572066	2790.3624540654196	771.716459922128	33.53976666502825	2791.7588253634894	804.7205184107565	-6.9859947285646005	2787.8912595479837	781.8079100199608	6.098520506949235	2787.2579509539933	768.6999195970906	16.717395555794855	2788.794785175805	763.248498970819	23.55206252246212	2791.123071858714	761.9547284832527	27.81197541436177	2792.3430803533447	798.0867828694707	-8.514853339245061	2789.06618911013	772.9275077993263	2.5529376562441763	2788.65167416916	760.690514734266	10.729533657982763	2789.817449941893	755.8722364283057	15.556779517956265	2791.9057164283513	754.2415921584413	19.23944313590117	2888.6866235786356	1222.7170516418487	-112.62380488188207	2869.6556030882643	1257.5590865671209	-6.780125317519045	2899.288752971565	1044.3546924772313	24.168900114165826	2833.823741255219	851.1397853135298	-0.779919812725903	2822.757148775009	858.1132716924992	-4.064771233885702	2815.920083825273	848.433460214387	-13.630710998274454	2811.367980825991	838.3652303056135	-19.75563231500973	2807.752077567815	827.1254470414694	-24.402499348529023	2821.931201790932	847.4654337522621	-1.6651842640199574	2806.960145359113	826.7390717048708	-4.391214886694925	2799.536396456544	808.8996784926613	-10.436991851416067	2797.556083282688	800.2525471771141	-16.698634064692435	2797.6943878744173	794.7436085391992	-23.569735131759284	2823.1636883357396	838.975001628117	-0.30749325033044617	2809.227165083446	814.1676317689032	-2.230821740998836	2801.3413053940203	793.6439747667807	-8.645163402125513	2799.0552756075163	782.7041557262993	-16.11188809843421	2799.256750059701	776.4297273875289	-23.587476606163733	2824.3844600173616	833.514229228107	0.7663711452505018	2812.860590379708	806.5673010399295	0.10681129917584364	2806.229238304259	787.6371041766147	-5.294575257168086	2804.152699322157	776.5315829769754	-12.396262747612699	2804.403041116254	770.3698960602927	-19.377544935731137	2826.4774208622075	827.7514469720649	1.727814028787888	2817.085828931463	799.5060282566305	1.8660208442612403	2812.2037164965623	782.839703452555	-2.1612161408535475	2810.8961340441965	774.0099522169437	-7.197067447614042	2811.2370566952973	768.131959489399	-13.298390116429758
316	1.313	3198.941	914.58397	126.699	3241.634588919247	884.0094366385948	50.31521292657061	3143.5800732924213	490.65903293695476	-55.15405809882819	3143.3653072609663	99.70234194642775	-134.00774415388562	2992.3968810545557	22.57490993281567	-45.70041016748829	3169.1361133580385	918.718381424491	215.41846409782283	3078.37216029736	515.6584542362573	283.96914492568067	2994.52851565655	89.78794089364705	354.51892226906807	2874.310959902681	6.264105750941728	231.60128999554541	3139.1885595198505	1033.8949657058415	75.12672076148509	3079.6848906469613	1089.538243009602	22.193931402444964	3014.4593421328223	1140.631186788348	-35.8948093974438	2947.7054997615624	1179.0378790917555	-95.15388297873889	2875.2432489209946	1220.419846389599	-156.92461168880564	2807.963196308567	1258.9577320744722	-210.7864961629272	2674.750328628713	1342.8109707144215	-234.16563780697277	2910.13964668346	1191.1778945484446	-159.11222210282858	2913.444812219601	1104.3594433022988	-235.69767490990532	2885.4048219710994	942.4238775788979	-77.2249249243531	2795.320922880138	817.6876750243429	-15.63930905531873	2791.5661416010266	828.6804675847004	-5.6465803127071865	2791.740466694329	827.2898151780723	6.5813356878395926	2791.8706961097923	822.7597857976554	15.074052573549391	2791.986817243339	815.9364622515029	22.134554864350896	2790.7850852879988	817.1127724389275	-4.86625941209675	2785.913730020967	802.1964492171646	11.750768989674018	2785.0247529354715	790.7957623793263	23.607022893610853	2786.215692298021	787.2065348492656	29.867723887407966	2788.3775571561778	786.595633617104	34.300753378490285	2791.097533106542	807.8965276422999	-5.4927525915312	2786.5144468911017	788.3628187502761	10.376041769029516	2785.604550946685	774.7534438015794	23.177372575502588	2787.0702460240295	769.8622429407003	30.665314290252738	2789.449751962099	768.9211141408096	35.484078505676145	2791.416280014797	801.750003400602	-6.359222232844571	2787.508650033792	778.8617842314461	7.110776007862604	2786.7845732991404	765.8359722221339	18.104243008056923	2788.234997868871	760.4999661640586	25.23974608460439	2790.489701225553	759.3221965186639	29.729265256934212	2792.13201572087	795.2231115959427	-7.840771866322742	2788.899366397748	770.1482347626187	3.6064593015836346	2788.4444265281786	758.0018729351576	12.094675407026672	2789.5627786297714	753.2797883859607	17.146992538387146	2791.5948433080803	751.7588136879813	21.036295917342933	2888.810693515071	1222.7423317468856	-112.76742755908407	2869.671573550349	1257.743586494497	-6.704014587302492	2898.988077155425	1043.9116312974	24.230455374031536	2834.053068745947	850.0707721998972	-0.07151616601794197	2822.8630895423776	856.3465838987765	-3.633593737884243	2816.2532486216865	846.2691548624122	-13.459264968893155	2811.926776557253	835.9818014227037	-19.727445885515888	2808.556624336791	824.608770155718	-24.461560815394716	2822.253414597867	845.8190938805494	-1.1179388437960238	2807.7348749674084	824.5232594994077	-3.9795555189134912	2800.700761832849	806.4091135864492	-10.155227801687579	2798.9136934226076	797.6550089258518	-16.53725436988741	2799.178899557668	792.1005916778163	-23.534730143793396	2823.6569982483343	837.5114032536251	0.3450972479163168	2810.2543725726396	812.2473969455568	-1.653487948182911	2802.8148844612706	791.4500412373825	-8.195274768754377	2800.772170620939	780.3936931262222	-15.800379860715479	2801.117444322664	774.0755940899791	-23.41090951137826	2824.9868744306027	832.1932992471179	1.4974271964661927	2814.0355264572468	804.9581434471246	0.840232954189422	2807.814064841492	785.8168087307304	-4.657511729406675	2805.983286203184	774.613446803963	-11.884858700257888	2806.3740774487082	768.4175983890353	-18.989315341610986	2827.1942727370106	826.6190884903519	2.548666984988976	2818.3977242146643	798.2221245487932	2.7463037137531474	2813.8738412127523	781.430768694715	-1.3351371186407546	2812.7600300610375	772.5509560612262	-6.4515411207630144	2813.2337217898935	766.6549624444267	-12.655584413760671
317	1.317	3198.941	914.58397	126.699	3241.6316238126396	883.9856292418042	50.31597498392407	3143.6053709408025	490.6156940244152	-55.10629940090503	3143.3746813520834	99.6624393791943	-133.98443522496245	2992.407011429065	22.534331619794678	-45.67639664751917	3169.1355611223366	918.7427758950922	215.42305985721643	3078.2848878179952	515.6928893338923	283.91769776892664	2994.5022002751557	89.83556404206597	354.62744708954983	2874.2835566399435	6.306548691974757	231.71441024250709	3139.20436971646	1033.8934529837366	75.10280475421439	3079.731002661986	1089.5350270447084	22.133881797812354	3014.5384619353117	1140.6248233977594	-35.99487575904168	2947.813235016296	1179.0227405337266	-95.29221416583108	2875.3807885911997	1220.3952511208022	-157.1044947699728	2808.1267437198544	1258.9259571023538	-211.00405077240956	2674.934556350333	1342.8180335507557	-234.40508972210355	2910.280110170846	1191.120357547244	-159.2976986709446	2913.525677829262	1103.9834772885206	-235.88470151266623	2884.769885906112	941.0174377283911	-77.52458717195448	2794.86673953566	815.0405908438729	-14.895436247997484	2790.733265792349	825.7503066198258	-4.9052357137123295	2790.6493675897054	824.3745290022556	7.656310282339005	2790.644186807631	819.8915293774186	16.41669341107822	2790.6854182815305	813.1387835785914	23.73055889436248	2790.073368770869	814.2655505378278	-4.020328173252336	2784.987526288839	799.2770209277517	12.97820710013286	2783.9669950927746	787.9465061318882	25.216493276473813	2785.066330608988	784.4427356814375	31.72029344806715	2787.1457518839375	783.9307834571944	36.35830544609348	2790.514927029025	805.1572823410256	-4.558477925135428	2785.7924682237713	785.6115145003	11.730178017970754	2784.756773843116	772.0933435674197	24.958947683258838	2786.1204715284575	767.3122644190904	32.74524889894069	2788.413911369306	766.4828175651267	37.79076607166381	2790.930432300554	799.0878885643285	-5.3731451116012146	2786.982087737167	776.2528980708847	8.515537986282464	2786.166730144284	763.321566011125	19.89170781596744	2787.5285226604065	758.0997391154016	27.320390437721695	2789.7069237798873	757.0307490995527	32.025668348839176	2791.7633661677723	792.6598425176858	-6.799136793910744	2788.5657842361643	767.6913549733775	5.063541729685744	2788.066579197358	755.6438025657563	13.872222864585432	2789.134227531483	751.0162016443526	19.145163309355578	2791.1067271285233	749.5980341565463	23.229494117127558	2888.9254531950774	1222.7583810049312	-112.91352731738799	2869.710154059292	1257.945945012458	-6.643614792195994	2898.728206150399	1043.4974117703819	24.335500342462446	2834.1268812319067	849.1133335009819	0.856714523685925	2822.7797084261974	854.7043879920307	-2.942859754795654	2816.351409233549	844.2185548352617	-13.002210950928347	2812.219678902146	833.7004490561251	-19.398514837648122	2809.070317490994	822.1809532523017	-24.209830096847412	2822.3874481300004	844.2848594399417	-0.31721757115876237	2808.2708965003358	822.3999516905287	-3.2786842966965075	2801.586280002939	803.9910712898379	-9.564983719782107	2799.967938355868	795.1189646163584	-16.058814598826697	2800.3400469800545	789.5108807841598	-23.17785580362756	2823.9661643534755	836.1490934885243	1.2414788103139731	2811.0503364844244	810.4034832525168	-0.8027440545305584	2804.0141102010143	789.309253045247	-7.452351464673667	2802.1854634501005	778.122412134908	-15.186157535283545	2802.6528147946137	771.7513630816266	-22.926693146092877	2825.4093320319334	830.9665493682193	2.464564511842445	2814.9920656589693	803.4147177899883	1.8297171546342597	2809.143699143647	784.0406822202709	-3.7487597430636326	2807.5308816913794	772.7252865160035	-11.093214911463154	2808.041894742516	766.4862086718483	-18.31657784984949	2827.7370911426115	825.5730207387601	3.5953304988021255	2819.5041205172993	796.9936613134951	3.864552453493909	2815.310385190531	780.0580050474463	-0.2609743930054673	2814.37073743744	771.116809873432	-5.452852141780153	2814.9596647712888	765.1942252513186	-11.75650183732434
318	1.321	3198.941	914.58397	126.699	3241.643566025697	883.9737947181699	50.31957944156242	3143.6622943830816	490.5768835727634	-55.04361437050339	3143.389885905454	99.6271390759635	-133.94749657096636	2992.422320468103	22.500127732330853	-45.638314944953045	3169.1213824213537	918.7555322032612	215.42422245684983	3078.171373039552	515.7182705026652	283.8614514530756	2994.4632735706728	89.87707005886496	354.7647058498469	2874.2398252183752	6.346995893353986	231.85709444004058	3139.213792698316	1033.8898653801486	75.08134771273377	3079.764928888566	1089.523508424735	22.07670069829981	3014.5999595936946	1140.6050546141068	-36.09011964627445	2947.89993773553	1178.9928919002425	-95.42259724268767	2875.493506576595	1220.3547765172957	-157.2726755215075	2808.262323665427	1258.8777959823735	-211.20631956743165	2675.0926796012027	1342.8143346523736	-234.61623508862232	2910.3862528264262	1191.0374888639321	-159.46765573931526	2913.509857632116	1103.5648654472457	-236.01251394153996	2883.953377225933	939.8864029287788	-77.54146391045059	2794.1660911475274	812.9128070540212	-13.606226968953564	2789.7280324099365	823.4008986169887	-3.6068168625948136	2789.4366059513045	822.0482281100399	9.266489726034715	2789.321727207919	817.6129815083848	18.28132195429147	2789.3012986150184	810.927130442471	25.83925394391661	2789.1620182635447	811.9915399139946	-2.6046479030875407	2783.896345612973	796.9739143799861	14.801186835762634	2782.7667290049485	785.7180441419498	27.416044168498793	2783.7926483077413	782.289234915438	34.143057771075085	2785.8075257139303	781.8585888171145	38.95846932478331	2789.705313853692	802.9749086057897	-3.0509903653532877	2784.8624803377393	783.4502993338879	13.684564758325433	2783.7217788868265	770.0258852051726	27.33515846278928	2785.003633863416	765.3411476307581	35.39599281111001	2787.2297237933267	764.603535202821	40.638162373473165	2790.197314865286	796.9702360894665	-3.811809988381958	2786.2075778527064	774.208159436243	10.522313204396399	2785.3152232003004	761.3710981441826	22.276598315026767	2786.6057860773167	756.2488659975143	29.975640698153768	2788.7245170298334	755.2693811317201	34.86845234809394	2791.1233968827432	790.6236331394654	-5.182650603326023	2787.9453139563752	765.7696638680551	7.120631525310959	2787.4072968869827	753.8168683106372	16.24646344027822	2788.434039851067	749.2712336387301	21.72355618698886	2790.3600415620317	747.937717746819	25.97801180521209	2889.027799738085	1222.7689500019253	-113.05458223144656	2869.7933837956357	1258.2002170950304	-6.606786849048798	2898.5205660209317	1043.173472673169	24.579581245256207	2833.933326383963	848.3332211875563	2.1203248949194284	2822.3853658610965	853.310719150646	-1.8467248721706415	2816.051258928175	842.4414335377859	-12.093072051677701	2812.0492175432987	831.7007787792095	-18.59034061623777	2809.062803231409	820.033810003942	-23.460794355803458	2822.1935564216096	842.9755491261731	0.8778911766881992	2808.3613711082444	820.5283892263254	-2.1206732322774737	2801.9327948526734	801.8287648192985	-8.483273597524539	2800.431275494995	792.8384732770988	-15.073206434300667	2800.871505656788	787.1747748109241	-22.30461893238795	2823.9394630795514	834.9851279486022	2.515061781287275	2811.391415956114	808.7697013555431	0.4771150143387617	2804.6557909552494	787.3793385266406	-6.245339317023067	2802.9782637574376	776.0600508119178	-14.09009331599511	2803.525100531296	769.6330772912328	-21.951154387107415	2825.4933794469307	829.9187748564809	3.7952324627660836	2815.5015198314845	802.0442941405893	3.217601218263696	2809.936260089124	782.4344924010527	-2.413745081573942	2808.480415470186	771.0032067582263	-9.859575729825352	2809.0714748563523	764.7171686081468	-17.193590218915865	2827.9414500475355	824.6820843274805	4.9873799684477715	2820.1725372487504	795.9004759830146	5.349246233996106	2816.2365691543773	778.8122990311665	1.1977041266087554	2815.426444528086	769.8041195683769	-4.060223127975807	2816.09492911648	763.8500339228945	-10.45734753272503
